<svg xmlns="http://www.w3.org/2000/svg" height="800" width="1200" viewBox="-35.27655 -24.6835 305.7301 148.101"><path d="M235.176 50.023c-.079.441-.192.88-.232 1.325-.45 5.068-2.286 9.499-6.023 13.041-2.584 2.448-5.685 3.951-9.117 4.762-4.245 1.002-8.499.987-12.69-.269-6.237-1.869-10.596-5.856-12.887-11.961-2.002-5.341-2.035-10.794-.287-16.2 1.85-5.72 5.666-9.69 11.242-11.938 4.145-1.67 8.449-1.954 12.839-1.368 3.672.489 6.99 1.814 9.853 4.195 2.077 1.727 3.607 3.885 4.859 6.258.236.447-.049.564-.36.693-1.74.721-3.481 1.441-5.224 2.16-1.149.475-2.301.943-3.448 1.422-.701.293-.697.296-1.045-.42-.888-1.837-2.07-3.415-3.909-4.409-3.939-2.129-10.432-1.435-13.387 4.242-1.404 2.696-1.787 5.57-1.584 8.559.156 2.314.717 4.506 2.037 6.443 1.957 2.868 4.782 4.105 8.164 4.184 2.12.049 4.175-.253 6.001-1.466 1.646-1.092 2.476-2.694 2.886-4.559.11-.5-.256-.497-.593-.497h-7.129c-.853 0-.854.001-.854-.825-.001-2.187-.001-4.375 0-6.563 0-.758.005-.761.75-.761l20.139-.006c-.001 1.318-.001 2.638-.001 3.958zM21.276 0c.077.238.217.476.219.714.016 2.149.022 4.3-.001 6.45-.006.532.153.735.705.728 2.093-.023 4.188-.021 6.28 0 .527.006.687-.193.683-.699-.02-2.169 0-4.338-.021-6.507-.005-.464.129-.639.604-.631 1.339.022 2.679.025 4.017 0 .503-.01.639.177.638.663-.013 6.261-.008 12.523-.01 18.785 0 .728-.039.765-.769.766-1.264.001-2.528-.018-3.791.009-.526.012-.689-.189-.685-.696.018-2.263.009-4.526.008-6.789 0-.847-.025-.873-.844-.873-2-.001-3.999-.002-5.998 0-.762 0-.809.047-.809.795 0 2.263.001 4.526 0 6.79 0 .731-.038.765-.769.765-1.264 0-2.527-.013-3.791.007-.469.008-.682-.127-.681-.638.011-6.337.011-12.674-.001-19.011 0-.468.191-.577.608-.57 1.131.016 2.263.008 3.395.002.224-.001.448-.038.672-.058C21.05 0 21.164 0 21.276 0z" fill="#221F23"/><path d="M50.023 0c.042.293.115.586.12.881.014.999-.009 1.999.012 2.998.01.444-.161.592-.598.587-1.659-.018-3.319.007-4.977-.016-.512-.007-.719.156-.697.681.03.715.029 1.434-.001 2.149-.021.478.168.626.627.621 1.545-.018 3.092.006 4.637-.016.502-.007.71.133.69.672-.038 1.036-.033 2.074-.001 3.11.015.506-.178.651-.661.644-1.489-.022-2.978-.01-4.468-.008-.791 0-.813.025-.815.84-.001.678.02 1.358-.008 2.036-.022.521.194.693.701.687 1.64-.021 3.281.008 4.92-.018.5-.008.663.169.651.656-.025 1.037-.022 2.074-.001 3.11.01.471-.127.669-.641.666-3.394-.019-6.787-.018-10.18 0-.495.002-.658-.162-.657-.651.011-6.315.012-12.631-.002-18.946-.001-.516.194-.627.668-.625 3.28.017 6.561.011 9.841.007.242 0 .484-.04.727-.062.038-.003.075-.003.113-.003z"/><path d="M13.694 0c.068.187.192.371.195.559.018 1.112-.002 2.224.013 3.334.005.414-.155.575-.567.569-1.017-.014-2.035.019-3.051-.014-.546-.017-.717.18-.716.721.017 4.748.01 9.496.01 14.245 0 .852 0 .852-.843.852H5.173c-.813 0-.836-.018-.836-.812V5.322c0-.864.003-.859-.893-.866C2.296 4.448 1.149 4.429 0 4.415V.001h.566c.167.021.334.058.5.058 3.892.003 7.784.003 11.675 0 .167 0 .334-.037.5-.058.151-.001.303-.001.453-.001zm44.849 69.924c-5.692-.106-10.847-1.671-15.198-5.427-3.634-3.138-5.956-7.1-6.788-11.834-1.353-7.703.667-14.39 6.377-19.825 2.562-2.438 5.65-3.995 9.066-4.886 4.11-1.073 8.271-1.166 12.378-.161 7.502 1.834 12.873 6.278 15.437 13.65 2.981 8.575.409 18.317-7.228 23.991-2.895 2.151-6.153 3.497-9.721 4.034-1.431.215-2.881.308-4.323.458zm116.242-17.232c.016-.213.047-.426.047-.639.002-7.657.002-15.313.002-22.97 0-.833.001-.833.847-.833 2.979 0 5.958.01 8.939-.013.499-.003.649.15.649.645-.011 13.05-.011 26.101.001 39.151.001.53-.175.677-.685.674-3.036-.019-6.074-.019-9.109 0-.486.003-.802-.16-1.097-.536-5.105-6.515-10.221-13.021-15.333-19.53-1.037-1.319-2.075-2.637-3.101-3.965-.125-.161-.174-.379-.258-.572-.101.07-.2.14-.3.21-.019.173-.053.345-.053.518-.001 7.694.001 15.389.002 23.083 0 .761-.015.781-.743.781-3.018.002-6.034-.008-9.052.01-.529.003-.721-.145-.721-.703.015-13.012.011-26.025.013-39.038 0-.7.017-.716.741-.716 3.055 0 6.109.007 9.164-.009.443-.002.721.152.995.499 6.175 7.879 12.362 15.749 18.542 23.625.114.145.154.348.229.523.093-.063.188-.129.281-.195zM23.862 47.115c.952.312 1.787.536 2.583.855 3.061 1.227 4.849 3.5 5.331 6.751.367 2.48.246 4.937-.801 7.265-1.362 3.029-3.741 4.891-6.863 5.879-2.019.64-4.094.832-6.196.832-5.374 0-10.749-.005-16.123.011-.53.001-.718-.142-.717-.7.013-13.031.012-26.061.003-39.092 0-.467.102-.676.622-.675 5.318.022 10.636-.007 15.953.048 2.088.022 4.122.431 5.978 1.479 2.296 1.296 3.642 3.287 4.19 5.825.452 2.09.461 4.189-.065 6.279-.506 2.014-1.694 3.545-3.334 4.763-.171.127-.327.277-.561.48zm-12.293 9.144c0 1.244.003 2.487-.001 3.731-.001.338.06.618.481.597 1.822-.09 3.653-.11 5.463-.312.792-.089 1.612-.442 2.297-.872 1.373-.857 1.682-2.248 1.502-3.762-.202-1.702-1.259-2.676-2.837-3.151-2.093-.63-4.248-.541-6.395-.536-.392 0-.518.206-.515.573.012 1.244.006 2.487.005 3.732zm0-16.053c0 1.131.007 2.263-.003 3.395-.003.372.136.59.521.565 1.182-.075 2.382-.059 3.54-.271 1.599-.293 2.571-1.306 2.842-2.963.318-1.947-.519-3.575-2.271-4.252-1.376-.533-2.822-.415-4.251-.369-.131.004-.354.36-.361.558-.035 1.111-.017 2.224-.017 3.337zm109.669 28.441c-.308.024-.487.049-.666.049-3.886.002-7.772-.005-11.657.011-.469.001-.756-.149-1.011-.547-3.024-4.713-6.064-9.416-9.102-14.119-.117-.181-.26-.346-.534-.488-.024.225-.071.45-.071.674-.003 4.583-.002 9.167-.002 13.75 0 .717-.003.721-.728.722H88.47c-.746 0-.77-.024-.77-.756 0-12.976.001-25.952-.006-38.928 0-.48.052-.775.656-.773 5.47.021 10.94-.016 16.409.038 2.945.029 5.719.759 8.111 2.571 2.627 1.99 4.005 4.719 4.424 7.93.295 2.264.166 4.522-.608 6.701-1.125 3.167-3.41 5.12-6.527 6.188-.285.098-.573.189-.864.267-.583.156-.632.277-.271.746 1.276 1.659 2.553 3.317 3.827 4.978 2.688 3.5 5.374 6.999 8.06 10.5.09.113.164.24.327.486zM98.195 41.323c0 1.469.005 2.938-.003 4.407-.001.363.053.66.507.624 1.458-.115 2.939-.118 4.369-.39 2.112-.4 3.523-2.178 3.587-4.228.079-2.545-1.041-4.227-3.258-4.95-1.497-.488-3.037-.483-4.582-.495-.465-.003-.632.159-.626.625.02 1.47.007 2.938.006 4.407zm38.122 7.173c0 6.525-.003 13.049.008 19.574.001.462-.139.637-.611.634-3.093-.013-6.184-.016-9.277.002-.544.003-.657-.222-.655-.713.013-5.544.009-11.088.009-16.633V29.014c0-.752.01-.763.752-.764 3.018-.001 6.034-.001 9.051 0 .721.001.72.005.72.728-.001 6.506-.001 13.012-.001 19.518h.004zm6.259 38.416c-.082.153-.178.3-.243.458-1.383 3.362-2.769 6.724-4.134 10.094-.189.462-.429.678-.958.664-1.683-.046-1.297.173-1.87-1.282-1.249-3.173-2.475-6.354-3.715-9.529-.063-.163-.178-.305-.268-.457-.052.006-.105.012-.157.019-.104.617-.217 1.233-.312 1.852-.446 2.964-.891 5.929-1.322 8.895-.05.347-.19.495-.542.493-1.396-.009-2.792-.011-4.188.001-.483.004-.511-.264-.446-.628.219-1.244.44-2.488.651-3.732.478-2.806.952-5.613 1.427-8.419.386-2.267.776-4.534 1.15-6.802.077-.467.263-.672.779-.657 1.281.039 2.566.039 3.846.001.506-.015.748.173.915.625 1.06 2.862 2.134 5.718 3.207 8.575.166.443.352.878.53 1.317.065-.007.131-.013.197-.02.175-.444.359-.885.526-1.333 1.071-2.858 2.147-5.714 3.197-8.58.155-.426.374-.59.824-.583 1.338.023 2.678.02 4.017.001.422-.006.582.144.654.568.75 4.461 1.526 8.919 2.289 13.378.325 1.895.623 3.793.961 5.686.084.475-.072.606-.517.602-1.32-.014-2.642-.022-3.961.004-.487.011-.665-.194-.729-.643-.292-2.034-.604-4.065-.905-6.097-.198-1.324-.389-2.649-.591-3.972-.027-.169-.108-.329-.165-.493-.048 0-.097-.003-.147-.006zm54.454-1.014c-.042.403-.086.63-.086.858-.006 3.526-.003 7.051-.003 10.578 0 .766-.018.783-.799.784-1.263.002-2.527-.012-3.789.007-.457.007-.638-.147-.638-.62.011-6.335.009-12.67.002-19.006 0-.421.129-.617.585-.611 1.395.019 2.792-.015 4.186.027.269.008.612.202.784.418 2.95 3.722 5.879 7.461 8.815 11.195.13.164.289.305.555.586.028-.394.058-.607.058-.82.004-3.545.001-7.09.003-10.634 0-.762.002-.762.744-.763 1.263 0 2.527.018 3.789-.01.479-.01.67.117.67.629-.013 6.335-.012 12.67 0 19.005.002.485-.187.612-.637.605a121.448 121.448 0 00-3.958 0c-.443.008-.735-.156-1.003-.498-2.926-3.742-5.863-7.475-8.799-11.209-.108-.138-.236-.26-.479-.521zm-86.184 12.836c-4.454-.188-7.929-1.745-10.06-5.573-3.146-5.65-.633-13.493 6.527-15.378 3.687-.971 7.208-.529 10.337 1.759 2.899 2.121 4.264 5.08 4.195 8.647-.1 5.24-3.65 9.338-8.808 10.257-.791.142-1.595.211-2.191.288zm-5.902-10.759c-.01 3.153 2.488 5.613 5.707 5.619 3.185.005 5.713-2.438 5.732-5.541.02-3.17-2.498-5.646-5.74-5.646-3.183.001-5.688 2.448-5.699 5.568zm81.508 10.142c-.66 0-1.324-.038-1.98.012-.539.042-.782-.185-.931-.668-.245-.791-.555-1.563-.798-2.354-.12-.392-.328-.542-.732-.541-2.149.011-4.3.01-6.45-.001-.409-.002-.619.183-.741.552-.275.841-.574 1.675-.847 2.518-.108.334-.303.489-.662.487-1.508-.008-3.017-.007-4.525 0-.429.002-.519-.146-.362-.556 2.415-6.316 4.822-12.635 7.218-18.958.189-.501.425-.747 1.017-.728 1.469.048 2.941.025 4.413.008.421-.005.635.149.788.552 2.137 5.636 4.292 11.264 6.442 16.895.276.721.546 1.445.832 2.163.17.428.083.636-.418.624-.755-.019-1.51-.005-2.264-.005zm-7.592-14.073c-.186.283-.304.403-.354.546-.639 1.808-1.258 3.621-1.907 5.425-.161.449-.073.622.417.616 1.186-.015 2.371-.014 3.556-.001.505.006.569-.183.399-.625-.336-.877-.62-1.774-.932-2.66-.368-1.04-.743-2.079-1.179-3.301zm-25.794 3.946c0-3.129 0-6.257.001-9.386 0-.707.021-.726.732-.725 2.677.006 5.355-.049 8.028.052 1.068.04 2.172.297 3.173.682 1.874.722 2.867 2.248 3.258 4.176.34 1.68.288 3.352-.374 4.945-1.016 2.451-3.049 3.427-5.547 3.603-1.125.079-2.261.043-3.392.025-.483-.007-.667.152-.661.652.022 1.828-.003 3.657.018 5.485.006.467-.148.633-.615.626-1.319-.02-2.638-.024-3.957.001-.521.01-.679-.179-.677-.693.022-3.148.013-6.295.013-9.443zm5.231-3.315c0 .679.004 1.356-.002 2.035-.002.326.132.491.472.483.584-.013 1.171.02 1.751-.025 1.849-.147 2.745-1.36 2.387-3.191-.183-.931-.826-1.62-1.765-1.744-.781-.104-1.576-.096-2.365-.132-.377-.019-.483.208-.48.541.004.676.001 1.354.002 2.033zM96.69 91.777v.999c0 1.415-.018 2.829.01 4.243.01.509-.189.722-.663.873-1.516.479-3.031.912-4.646.785-4.135-.327-7.221-2.304-9.049-6.02-2.866-5.83-.084-12.546 6.046-14.734 2.635-.94 5.269-.738 7.847.277.195.077.43.366.434.56.032 1.791.017 3.582.013 5.373 0 .051-.038.103-.069.18-3.073-2.526-6.141-2.917-8.849.388-1.663 2.029-1.372 5.165.33 7.062 1.122 1.251 2.533 1.851 4.215 1.831 1.677-.02 3.021-.79 4.222-1.901.053.027.105.056.159.084zm117.129-13.85c.293-.021.472-.046.65-.046 1.641-.003 3.281.01 4.92-.011.413-.006.661.151.879.479 1.009 1.503 2.032 2.995 3.053 4.488.367.539.449.537.819-.009.993-1.467 1.994-2.928 2.968-4.409.255-.388.534-.559 1.011-.551 1.62.026 3.242.009 4.863.013.179 0 .357.026.641.05-.13.229-.197.374-.288.502-2.233 3.175-4.477 6.343-6.695 9.53-.198.286-.325.686-.329 1.035-.026 2.808-.027 5.617-.004 8.426.005.55-.173.718-.713.705-1.301-.032-2.602-.025-3.902-.002-.471.008-.621-.162-.619-.626.017-2.808.022-5.617-.008-8.426-.005-.402-.138-.863-.363-1.19-2.154-3.117-4.342-6.21-6.515-9.312-.122-.177-.212-.372-.368-.646z" fill="#221F23"/></svg>