<svg xmlns="http://www.w3.org/2000/svg" height="800" width="1200" viewBox="-12.7143 -4.762 110.1906 28.572"><path fill-rule="evenodd" fill="#2D8CFF" d="M69.012 5.712c.324.559.43 1.195.465 1.91l.046.953v6.664l.047.954c.094 1.558 1.243 2.71 2.813 2.808l.949.047V8.575l.047-.953c.039-.707.144-1.355.473-1.918a3.806 3.806 0 016.59.012c.324.559.425 1.207.464 1.906l.047.95v6.667l.047.954c.098 1.566 1.238 2.718 2.813 2.808l.949.047V7.622a7.62 7.62 0 00-7.617-7.62 7.6 7.6 0 00-5.715 2.581A7.61 7.61 0 0065.715.001c-1.582 0-3.05.48-4.266 1.309C60.707.482 59.047.001 58.094.001v19.047l.953-.047c1.594-.105 2.746-1.226 2.808-2.808l.051-.954V8.575l.047-.953c.04-.719.14-1.351.465-1.914a3.816 3.816 0 013.297-1.898 3.81 3.81 0 013.297 1.902zM3.809 19.002l.953.046h14.285l-.047-.95c-.129-1.566-1.238-2.71-2.809-2.812l-.953-.047h-8.57l11.426-11.43-.047-.949c-.074-1.582-1.23-2.725-2.809-2.812l-.953-.043L0 .001l.047.953c.125 1.551 1.25 2.719 2.808 2.809l.954.047h8.57L.953 15.24l.047.953c.094 1.57 1.227 2.707 2.809 2.808zM54.355 2.789a9.523 9.523 0 010 13.469 9.53 9.53 0 01-13.472 0c-3.719-3.719-3.719-9.75 0-13.469A9.518 9.518 0 0147.613 0a9.525 9.525 0 016.742 2.79zM51.66 5.486a5.717 5.717 0 010 8.082 5.717 5.717 0 01-8.082 0 5.717 5.717 0 010-8.082 5.717 5.717 0 018.082 0zM27.625 0a9.518 9.518 0 016.73 2.79c3.72 3.718 3.72 9.75 0 13.468a9.53 9.53 0 01-13.472 0c-3.719-3.719-3.719-9.75 0-13.469A9.518 9.518 0 0127.613 0zm4.035 5.484a5.717 5.717 0 010 8.083 5.717 5.717 0 01-8.082 0 5.717 5.717 0 010-8.082 5.717 5.717 0 018.082 0z"/></svg>